<svg width="512" height="512" viewBox="0 0 512 512" fill="none" xmlns="http://www.w3.org/2000/svg">
<path d="M256.614 200.083C287.496 200.083 312.53 225.118 312.531 256C312.531 286.883 287.497 311.917 256.614 311.917C225.732 311.916 200.698 286.882 200.698 256C200.698 225.118 225.733 200.084 256.614 200.083Z" fill="black"/>
<path fill-rule="evenodd" clip-rule="evenodd" d="M332.427 0C374.975 0.00228222 409.465 34.4936 409.468 77.0417V101.896H434.323C476.876 101.896 511.364 136.405 511.364 178.958C511.361 221.475 476.931 255.945 434.427 256C476.931 256.054 511.381 290.525 511.385 333.042C511.385 375.594 476.875 410.104 434.323 410.104H409.468V434.958C409.463 477.506 374.975 511.998 332.427 512C293.204 512 260.817 482.682 255.989 444.771C251.162 482.68 218.793 511.997 179.573 512C137.022 512 102.515 477.507 102.51 434.958V410.104H77.6559C35.1069 410.1 0.614752 375.591 0.614258 333.042C0.617971 290.525 35.0682 256.054 77.5726 256C35.0684 255.945 0.617312 221.475 0.614258 178.958C0.614256 136.408 35.1072 101.901 77.6559 101.896H102.51V77.0417C102.514 34.4922 137.022 0 179.573 0C218.789 0.00251207 251.157 29.3045 255.989 67.2083C260.821 29.3023 293.208 0.000302264 332.427 0ZM304.573 187.083C275.444 167.238 237.138 167.237 208.01 187.083L121.593 245.979C114.356 250.912 114.355 261.588 121.593 266.521L208.01 325.396C237.14 345.245 275.443 345.244 304.573 325.396L390.989 266.521C398.228 261.588 398.228 250.912 390.989 245.979L304.573 187.083Z" fill="black"/>
</svg>
